#!OML:ASF X:\für Bonn\!DataBase\2005_08_12_Daniel\c3d\Daniel.ASF
:FULLY-SPECIFIED
:DEGREES
33
root -3.77915 15.7096 -1.09804 325.806 -88.2708 -340.078
lowerback 28.8058 -2.20587 1.96295
upperback 1.44816 -2.88965 -2.76104
thorax -13.906 -1.60627 -2.92566
lowerneck 7.56385 2.25103 -2.10206
upperneck 2.14601 2.75007 0.825869
head -0.632155 1.31744 0.526332
rclavicle -1.963e-014 1.35174e-014
rhumerus 84.1976 -29.6698 -195.712
rradius 12.8325
rwrist 159.781
rhand -22.6709 13.6102
rfingers 7.12502
rthumb 3.7609 -16.3363
lclavicle -1.963e-014 1.35174e-014
lhumerus 58.1995 1.22 96.7832
lradius 8.11967
lwrist -70.1224
lhand -12.8937 3.33557
lfingers 7.12502
lthumb 13.1957 32.898
rfemur -13.0386 -19.852 7.27326
rtibia 60.8994
rfoot -23.7074 10.87
rtoes -11.2214
lfemur 163.199 171.405 -190.869
ltibia 61.9254
lfoot -27.3611 -19.131
ltoes 0.87833
34
root -3.76218 15.5748 -1.09495 325.868 -88.3623 -340.414
lowerback 29.3209 -2.19569 2.005
upperback 1.53121 -2.86763 -2.76663
thorax -14.0468 -1.6016 -2.94939
lowerneck 7.6869 2.24942 -2.07729
upperneck 2.00065 2.74867 0.824137
head -0.698151 1.31788 0.520049
rclavicle 6.60959e-015 2.3059e-014
rhumerus 83.476 -29.2756 -194.336
rradius 12.8293
rwrist 158.588
rhand -22.6681 13.6456
rfingers 7.12502
rthumb 3.76364 -16.3009
lclavicle 6.60959e-015 2.3059e-014
lhumerus 58.4886 1.12437 96.834
lradius 8.32952
lwrist -70.4788
lhand -12.898 3.38641
lfingers 7.12502
lthumb 13.1915 32.9491
rfemur -14.27 -20.6871 6.77179
rtibia 63.4847
rfoot -23.1805 12.0209
rtoes -10.5191
lfemur 162.306 170.725 -190.492
ltibia 63.9562
lfoot -27.7225 -19.9287
ltoes 0.917792
35
root -3.74619 15.4365 -1.09251 325.585 -88.4442 -340.405
lowerback 29.8275 -2.19039 2.01032
upperback 1.60651 -2.86259 -2.76329
thorax -14.1891 -1.60204 -2.93708
lowerneck 7.87869 2.26786 -2.07392
upperneck 1.79874 2.77096 0.829762
head -0.794727 1.33007 0.518052
rclavicle 4.89507e-015 7.95139e-015
rhumerus 82.8483 -28.9022 -193.216
rradius 12.8306
rwrist 157.658
rhand -22.692 13.6284
rfingers 7.12502
rthumb 3.74053 -16.3186
lclavicle 4.89507e-015 7.95139e-015
lhumerus 58.7642 1.07129 96.8819
lradius 8.50021
lwrist -70.8363
lhand -13.069 3.39356
lfingers 7.12502
lthumb 13.0267 32.9668
rfemur -15.4836 -21.4765 6.25366
rtibia 66.0545
rfoot -22.6949 13.1498
rtoes -9.90347
lfemur 161.415 170.08 -190.118
ltibia 66.0123
lfoot -28.0879 -20.7491
ltoes 0.922985
36
root -3.72965 15.2902 -1.08983 324.98 -88.5285 -340.055
lowerback 30.3167 -2.17716 2.03067
upperback 1.6839 -2.84383 -2.76875
thorax -14.3192 -1.59767 -2.9487
lowerneck 8.0177 2.26262 -2.10494
upperneck 1.62881 2.76027 0.857418
head -0.873133 1.32527 0.530265
rclavicle -2.8625e-014 -5.56597e-015
rhumerus 82.5518 -28.5088 -192.73
rradius 12.8399
rwrist 157.247
rhand -22.7218 13.6032
rfingers 7.12502
rthumb 3.71173 -16.3443
lclavicle -2.8625e-014 -5.56597e-015
lhumerus 59.0528 0.99586 96.9304
lradius 8.57376
lwrist -71.0934
lhand -13.4559 3.34557
lfingers 7.12502
lthumb 12.6537 32.9423
rfemur -16.7265 -22.2117 5.7377
rtibia 68.6091
rfoot -22.1566 14.2549
rtoes -9.25239
lfemur 160.486 169.459 -189.745
ltibia 68.1009
lfoot -28.3993 -21.575
ltoes 1.13794
37
root -3.71437 15.1389 -1.08779 325.226 -88.6153 -340.577
lowerback 30.8017 -2.17717 2.08287
upperback 1.77127 -2.83268 -2.78037
thorax -14.436 -1.59907 -2.98164
lowerneck 8.19859 2.27524 -2.13298
upperneck 1.42282 2.77279 0.882648
head -0.970726 1.33222 0.540018
rclavicle 5.41688e-015 -4.77083e-015
rhumerus 82.3977 -28.1153 -192.525
rradius 12.8211
rwrist 157.096
rhand -22.7395 13.5166
rfingers 7.12502
rthumb 3.69469 -16.4312
lclavicle 5.41688e-015 -4.77083e-015
lhumerus 59.3403 0.918276 96.9617
lradius 8.57013
lwrist -71.2237
lhand -14.0106 3.38154
lfingers 7.12502
lthumb 12.1189 33.0106
rfemur -17.9239 -22.8929 5.24156
rtibia 71.1368
rfoot -21.7274 15.2846
rtoes -8.88424
lfemur 159.559 168.842 -189.327
ltibia 70.2098
lfoot -28.6656 -22.4278
ltoes 1.37959
38
root -3.70124 14.9863 -1.08601 324.904 -88.6913 -340.537
lowerback 31.2971 -2.17435 2.10069
upperback 1.8459 -2.82487 -2.76511
thorax -14.5667 -1.59893 -2.96508
lowerneck 8.36547 2.29651 -2.24506
upperneck 1.25239 2.78897 0.932955
head -1.05703 1.3399 0.571896
rclavicle 1.41883e-014 1.51076e-014
rhumerus 82.4088 -27.7587 -192.659
rradius 12.7705
rwrist 157.3
rhand -22.7539 13.4564
rfingers 7.12502
rthumb 3.68079 -16.4915
lclavicle 1.41883e-014 1.51076e-014
lhumerus 59.6213 0.890098 97.0306
lradius 8.47664
lwrist -71.2022
lhand -14.635 3.36064
lfingers 7.12502
lthumb 11.5167 33.0242
rfemur -19.0718 -23.4768 4.7257
rtibia 73.5962
rfoot -21.2969 16.3307
rtoes -8.48109
lfemur 158.622 168.237 -188.923
ltibia 72.3239
lfoot -28.893 -23.2537
ltoes 1.61122
39
root -3.68875 14.8318 -1.08396 325.086 -88.7595 -340.99
lowerback 31.7846 -2.1847 2.16239
upperback 1.92722 -2.82449 -2.78427
thorax -14.6887 -1.60622 -3.00716
lowerneck 8.44467 2.30169 -2.25612
upperneck 1.12965 2.79506 0.96288
head -1.11087 1.3433 0.581753
rclavicle 2.6165e-014 1.82882e-014
rhumerus 82.6759 -27.394 -193.338
rradius 12.7153
rwrist 157.939
rhand -22.7651 13.3398
rfingers 7.12502
rthumb 3.66992 -16.6084
lclavicle 2.6165e-014 1.82882e-014
lhumerus 59.9848 0.799147 97.0684
lradius 8.2708
lwrist -71.1237
lhand -15.2532 3.40991
lfingers 7.12502
lthumb 10.9205 33.1059
rfemur -20.2185 -24.0045 4.22479
rtibia 76.0054
rfoot -20.9486 17.3149
rtoes -8.16832
lfemur 157.653 167.654 -188.518
ltibia 74.4378
lfoot -29.0729 -24.0726
ltoes 1.91712
40
root -3.6771 14.6722 -1.08259 325.123 -88.8419 -341.309
lowerback 32.2759 -2.18352 2.22055
upperback 2.01346 -2.80945 -2.79708
thorax -14.8025 -1.60678 -3.04653
lowerneck 8.52167 2.29956 -2.26657
upperneck 0.977851 2.79211 0.98306
head -1.17344 1.34273 0.588727
rclavicle -2.98177e-016 -2.38542e-015
rhumerus 82.9087 -27.0387 -193.919
rradius 12.6704
rwrist 158.505
rhand -22.7564 13.263
rfingers 7.12502
rthumb 3.67834 -16.685
lclavicle -2.98177e-016 -2.38542e-015
lhumerus 60.4902 0.696688 97.1165
lradius 7.88655
lwrist -70.9741
lhand -15.8449 3.38384
lfingers 7.12502
lthumb 10.3497 33.1092
rfemur -21.3307 -24.4543 3.73517
rtibia 78.36
rfoot -20.6352 18.3034
rtoes -7.77958
lfemur 156.679 167.051 -188.079
ltibia 76.5727
lfoot -29.0844 -24.9359
ltoes 2.32046
